<svg width="29" height="33" viewBox="0 0 29 35" fill="none" xmlns="http://www.w3.org/2000/svg">
<path d="M0 0H23C26.3137 0 29 2.68629 29 6V29C29 32.3137 26.3137 35 23 35H0V0Z" fill="#EF4444"/>
<path fill-rule="evenodd" clip-rule="evenodd" d="M9.64898 12.649C9.98093 12.317 10.5191 12.317 10.8511 12.649L14.5 16.2979L18.149 12.649C18.4809 12.317 19.0191 12.317 19.3511 12.649C19.683 12.9809 19.683 13.5191 19.3511 13.851L15.7021 17.5L19.3511 21.149C19.683 21.4809 19.683 22.0191 19.3511 22.351C19.0191 22.683 18.4809 22.683 18.149 22.351L14.5 18.7021L10.8511 22.351C10.5191 22.683 9.98093 22.683 9.64898 22.351C9.31704 22.0191 9.31704 21.4809 9.64898 21.149L13.2979 17.5L9.64898 13.851C9.31704 13.5191 9.31704 12.9809 9.64898 12.649Z" fill="white"/>
</svg>
