<svg width="11" height="14" viewBox="0 0 11 14" fill="none" xmlns="http://www.w3.org/2000/svg">
<path d="M4.6499 0.200001C4.18046 0.200001 3.7999 0.580559 3.7999 1.05C3.7999 1.51944 4.18046 1.9 4.6499 1.9H6.3499C6.81934 1.9 7.1999 1.51944 7.1999 1.05C7.1999 0.580559 6.81934 0.200001 6.3499 0.200001H4.6499Z" fill="#111827"/>
<path fill-rule="evenodd" clip-rule="evenodd" d="M0.399902 2.75C0.399902 1.81112 1.16102 1.05 2.0999 1.05C2.0999 2.45833 3.24158 3.6 4.6499 3.6H6.3499C7.75823 3.6 8.8999 2.45833 8.8999 1.05C9.83879 1.05 10.5999 1.81112 10.5999 2.75V12.1C10.5999 13.0389 9.83879 13.8 8.8999 13.8H2.0999C1.16102 13.8 0.399902 13.0389 0.399902 12.1V2.75ZM2.9499 6.15C2.48046 6.15 2.0999 6.53056 2.0999 7C2.0999 7.46944 2.48046 7.85 2.9499 7.85H2.9584C3.42784 7.85 3.8084 7.46944 3.8084 7C3.8084 6.53056 3.42784 6.15 2.9584 6.15H2.9499ZM5.4999 6.15C5.03046 6.15 4.6499 6.53056 4.6499 7C4.6499 7.46944 5.03046 7.85 5.4999 7.85H8.0499C8.51934 7.85 8.8999 7.46944 8.8999 7C8.8999 6.53056 8.51934 6.15 8.0499 6.15H5.4999ZM2.9499 9.55C2.48046 9.55 2.0999 9.93056 2.0999 10.4C2.0999 10.8694 2.48046 11.25 2.9499 11.25H2.9584C3.42784 11.25 3.8084 10.8694 3.8084 10.4C3.8084 9.93056 3.42784 9.55 2.9584 9.55H2.9499ZM5.4999 9.55C5.03046 9.55 4.6499 9.93056 4.6499 10.4C4.6499 10.8694 5.03046 11.25 5.4999 11.25H8.0499C8.51934 11.25 8.8999 10.8694 8.8999 10.4C8.8999 9.93056 8.51934 9.55 8.0499 9.55H5.4999Z" fill="#111827"/>
</svg>
