<svg width="17" height="18" viewBox="0 0 17 18" fill="none" xmlns="http://www.w3.org/2000/svg">
<path d="M12.2878 11.1614C12.4467 11.1614 12.5753 11.0307 12.5753 10.8693C12.5753 10.708 12.4467 10.5773 12.2878 10.5773H4.69955C4.54067 10.5773 4.41211 10.708 4.41211 10.8693C4.41211 11.0307 4.54066 11.1614 4.69955 11.1614H5.27201V15.2923C5.27201 15.4529 5.40128 15.5843 5.55945 15.5843H11.4257C11.5867 15.5843 11.7132 15.4529 11.7132 15.2923V11.1614H12.2878ZM10.194 14.093H6.79297C6.63408 14.093 6.50553 13.9623 6.50553 13.801C6.50553 13.6396 6.63407 13.5089 6.79297 13.5089H10.194C10.3528 13.5089 10.4814 13.6396 10.4814 13.801C10.4814 13.9622 10.3528 14.093 10.194 14.093ZM10.194 12.6531H6.79297C6.63408 12.6531 6.50553 12.5224 6.50553 12.3611C6.50553 12.1997 6.63407 12.069 6.79297 12.069H10.194C10.3528 12.069 10.4814 12.1997 10.4814 12.3611C10.4814 12.5223 10.3528 12.6531 10.194 12.6531Z" fill="#232323"/>
<path d="M14.162 5.69818H2.82601C2.19652 5.69818 1.68785 6.21513 1.68785 6.85469L1.68774 11.6416C1.68774 12.2812 2.19649 12.7981 2.8259 12.7981H4.69716V11.7452C4.22271 11.7439 3.83715 11.3516 3.83715 10.8692C3.83715 10.386 4.22393 9.99299 4.69945 9.99299L12.2877 9.9931C12.7632 9.9931 13.15 10.3861 13.15 10.8693C13.15 11.3525 12.7632 11.7455 12.2877 11.7455V12.7982H14.1618C14.7884 12.7982 15.3 12.2812 15.3 11.6417L15.3001 6.8548C15.3001 6.21515 14.7885 5.6982 14.1619 5.6982L14.162 5.69818Z" fill="#232323"/>
<path d="M13.268 4.38994C13.268 3.91386 12.8829 3.52255 12.4144 3.52255H12.2878V5.11433H13.2681L13.268 4.38994Z" fill="#232323"/>
<path d="M4.6971 3.52241H4.57335C4.10202 3.52241 3.71973 3.91374 3.71973 4.3898V5.11419H4.69711L4.6971 3.52241Z" fill="#232323"/>
<path d="M11.7131 1.85775C11.7131 1.69419 11.5867 1.56568 11.4257 1.56568H5.55941C5.40136 1.56568 5.27197 1.69418 5.27197 1.85775V5.11427H11.7131V1.85775ZM10.1939 4.35096H6.79293C6.63405 4.35096 6.50549 4.22024 6.50549 4.05888C6.50549 3.89754 6.63404 3.76681 6.79293 3.76681H10.1939C10.3528 3.76681 10.4814 3.89753 10.4814 4.05888C10.4814 4.22022 10.3527 4.35096 10.1939 4.35096ZM10.1939 2.91108H6.79293C6.63405 2.91108 6.50549 2.78035 6.50549 2.619C6.50549 2.45766 6.63404 2.32692 6.79293 2.32692H10.1939C10.3528 2.32692 10.4814 2.45765 10.4814 2.619C10.4814 2.78034 10.3527 2.91108 10.1939 2.91108Z" fill="#232323"/>
</svg>
